solid OpenSCAD_Model
  facet normal 1 -0 0
    outer loop
      vertex 28.5 -19.5 1.2
      vertex 28.5 19.5 0
      vertex 28.5 19.5 1.2
    endloop
  endfacet
  facet normal 1 0 0
    outer loop
      vertex 28.5 19.5 0
      vertex 28.5 -19.5 1.2
      vertex 28.5 -19.5 0
    endloop
  endfacet
  facet normal 0 -1 0
    outer loop
      vertex -28.5 -19.5 0
      vertex 28.5 -19.5 1.2
      vertex -28.5 -19.5 1.2
    endloop
  endfacet
  facet normal 0 -1 -0
    outer loop
      vertex 28.5 -19.5 1.2
      vertex -28.5 -19.5 0
      vertex 28.5 -19.5 0
    endloop
  endfacet
  facet normal 0 1 -0
    outer loop
      vertex 28.5 19.5 0
      vertex -28.5 19.5 1.2
      vertex 28.5 19.5 1.2
    endloop
  endfacet
  facet normal 0 1 0
    outer loop
      vertex -28.5 19.5 1.2
      vertex 28.5 19.5 0
      vertex -28.5 19.5 0
    endloop
  endfacet
  facet normal -1 0 0
    outer loop
      vertex -28.5 -19.5 0
      vertex -28.5 19.5 1.2
      vertex -28.5 19.5 0
    endloop
  endfacet
  facet normal -1 -0 0
    outer loop
      vertex -28.5 19.5 1.2
      vertex -28.5 -19.5 0
      vertex -28.5 -19.5 1.2
    endloop
  endfacet
  facet normal 0 0 1
    outer loop
      vertex 28.5 19.5 1.2
      vertex 22.45 13.45 1.2
      vertex 28.5 -19.5 1.2
    endloop
  endfacet
  facet normal 0 0 1
    outer loop
      vertex 28.5 19.5 1.2
      vertex -22.45 13.45 1.2
      vertex 22.45 13.45 1.2
    endloop
  endfacet
  facet normal 0 0 1
    outer loop
      vertex -22.45 13.45 1.2
      vertex -28.5 19.5 1.2
      vertex -22.45 -13.45 1.2
    endloop
  endfacet
  facet normal -0 0 1
    outer loop
      vertex -28.5 19.5 1.2
      vertex -22.45 13.45 1.2
      vertex 28.5 19.5 1.2
    endloop
  endfacet
  facet normal -0 0 1
    outer loop
      vertex 22.45 -13.45 1.2
      vertex 28.5 -19.5 1.2
      vertex 22.45 13.45 1.2
    endloop
  endfacet
  facet normal -0 0 1
    outer loop
      vertex -22.45 -13.45 1.2
      vertex 28.5 -19.5 1.2
      vertex 22.45 -13.45 1.2
    endloop
  endfacet
  facet normal 0 0 1
    outer loop
      vertex -22.45 -13.45 1.2
      vertex -28.5 -19.5 1.2
      vertex 28.5 -19.5 1.2
    endloop
  endfacet
  facet normal 0 0 1
    outer loop
      vertex -28.5 -19.5 1.2
      vertex -22.45 -13.45 1.2
      vertex -28.5 19.5 1.2
    endloop
  endfacet
  facet normal 0 0 -1
    outer loop
      vertex 28.5 -19.5 0
      vertex 20 -11 0
      vertex 28.5 19.5 0
    endloop
  endfacet
  facet normal 0 0 -1
    outer loop
      vertex 28.5 -19.5 0
      vertex -20 -11 0
      vertex 20 -11 0
    endloop
  endfacet
  facet normal -0 0 -1
    outer loop
      vertex -20 -11 0
      vertex -28.5 -19.5 0
      vertex -20 11 0
    endloop
  endfacet
  facet normal 0 0 -1
    outer loop
      vertex -28.5 -19.5 0
      vertex -20 -11 0
      vertex 28.5 -19.5 0
    endloop
  endfacet
  facet normal 0 0 -1
    outer loop
      vertex 20 11 0
      vertex 28.5 19.5 0
      vertex 20 -11 0
    endloop
  endfacet
  facet normal 0 0 -1
    outer loop
      vertex -20 11 0
      vertex 28.5 19.5 0
      vertex 20 11 0
    endloop
  endfacet
  facet normal 0 0 -1
    outer loop
      vertex -20 11 0
      vertex -28.5 19.5 0
      vertex 28.5 19.5 0
    endloop
  endfacet
  facet normal 0 0 -1
    outer loop
      vertex -28.5 19.5 0
      vertex -20 11 0
      vertex -28.5 -19.5 0
    endloop
  endfacet
  facet normal 1 -0 0
    outer loop
      vertex 22.45 -13.45 3.79
      vertex 22.45 13.45 1.2
      vertex 22.45 13.45 3.79
    endloop
  endfacet
  facet normal 1 0 0
    outer loop
      vertex 22.45 13.45 1.2
      vertex 22.45 -13.45 3.79
      vertex 22.45 -13.45 1.2
    endloop
  endfacet
  facet normal 0 -1 0
    outer loop
      vertex -22.45 -13.45 1.2
      vertex 22.45 -13.45 3.79
      vertex -22.45 -13.45 3.79
    endloop
  endfacet
  facet normal 0 -1 -0
    outer loop
      vertex 22.45 -13.45 3.79
      vertex -22.45 -13.45 1.2
      vertex 22.45 -13.45 1.2
    endloop
  endfacet
  facet normal 0 1 -0
    outer loop
      vertex 22.45 13.45 1.2
      vertex -22.45 13.45 3.79
      vertex 22.45 13.45 3.79
    endloop
  endfacet
  facet normal 0 1 0
    outer loop
      vertex -22.45 13.45 3.79
      vertex 22.45 13.45 1.2
      vertex -22.45 13.45 1.2
    endloop
  endfacet
  facet normal -1 0 0
    outer loop
      vertex -22.45 -13.45 1.2
      vertex -22.45 13.45 3.79
      vertex -22.45 13.45 1.2
    endloop
  endfacet
  facet normal -1 -0 0
    outer loop
      vertex -22.45 13.45 3.79
      vertex -22.45 -13.45 1.2
      vertex -22.45 -13.45 3.79
    endloop
  endfacet
  facet normal 0 0 1
    outer loop
      vertex 22.45 13.45 3.79
      vertex 20 11 3.79
      vertex 22.45 -13.45 3.79
    endloop
  endfacet
  facet normal 0 0 1
    outer loop
      vertex 22.45 13.45 3.79
      vertex -20 11 3.79
      vertex 20 11 3.79
    endloop
  endfacet
  facet normal 0 0 1
    outer loop
      vertex -20 11 3.79
      vertex -22.45 13.45 3.79
      vertex -20 -11 3.79
    endloop
  endfacet
  facet normal -0 0 1
    outer loop
      vertex -22.45 13.45 3.79
      vertex -20 11 3.79
      vertex 22.45 13.45 3.79
    endloop
  endfacet
  facet normal -0 0 1
    outer loop
      vertex 20 -11 3.79
      vertex 22.45 -13.45 3.79
      vertex 20 11 3.79
    endloop
  endfacet
  facet normal -0 0 1
    outer loop
      vertex -20 -11 3.79
      vertex 22.45 -13.45 3.79
      vertex 20 -11 3.79
    endloop
  endfacet
  facet normal 0 0 1
    outer loop
      vertex -20 -11 3.79
      vertex -22.45 -13.45 3.79
      vertex 22.45 -13.45 3.79
    endloop
  endfacet
  facet normal 0 0 1
    outer loop
      vertex -22.45 -13.45 3.79
      vertex -20 -11 3.79
      vertex -22.45 13.45 3.79
    endloop
  endfacet
  facet normal -1 0 0
    outer loop
      vertex 20 -11 0
      vertex 20 11 3.79
      vertex 20 11 0
    endloop
  endfacet
  facet normal -1 -0 0
    outer loop
      vertex 20 11 3.79
      vertex 20 -11 0
      vertex 20 -11 3.79
    endloop
  endfacet
  facet normal 0 1 -0
    outer loop
      vertex 20 -11 0
      vertex -20 -11 3.79
      vertex 20 -11 3.79
    endloop
  endfacet
  facet normal 0 1 0
    outer loop
      vertex -20 -11 3.79
      vertex 20 -11 0
      vertex -20 -11 0
    endloop
  endfacet
  facet normal 0 -1 0
    outer loop
      vertex -20 11 0
      vertex 20 11 3.79
      vertex -20 11 3.79
    endloop
  endfacet
  facet normal 0 -1 -0
    outer loop
      vertex 20 11 3.79
      vertex -20 11 0
      vertex 20 11 0
    endloop
  endfacet
  facet normal 1 -0 0
    outer loop
      vertex -20 -11 3.79
      vertex -20 11 0
      vertex -20 11 3.79
    endloop
  endfacet
  facet normal 1 0 0
    outer loop
      vertex -20 11 0
      vertex -20 -11 3.79
      vertex -20 -11 0
    endloop
  endfacet
endsolid OpenSCAD_Model
